<svg width="24" height="22" viewBox="0 0 24 22" fill="none" xmlns="http://www.w3.org/2000/svg">
<path d="M0.947289 13.8978C0.424116 13.8978 0 13.4736 0 12.9505C0 12.4273 0.424116 12.0032 0.947289 12.0032H23.0525C23.5757 12.0032 23.9998 12.4273 23.9998 12.9505C23.9998 13.4736 23.5757 13.8978 23.0525 13.8978H0.947289Z" fill="#706FE5"/>
<path d="M12.0031 8.84136C9.56163 8.84136 7.58243 6.86215 7.58243 4.42068C7.58243 1.97921 9.56163 0 12.0031 0C14.4446 0 16.4238 1.97921 16.4238 4.42068C16.4238 6.86215 14.4446 8.84136 12.0031 8.84136Z" fill="#706FE5"/>
<path d="M12.0031 5.05224C12.3519 5.05224 12.6346 4.76949 12.6346 4.42071C12.6346 4.07193 12.3519 3.78918 12.0031 3.78918C11.6543 3.78918 11.3716 4.07193 11.3716 4.42071C11.3716 4.76949 11.6543 5.05224 12.0031 5.05224Z" fill="#706FE5"/>
<path d="M9.47615 9.51432C7.87233 12.4333 3.32783 20.7534 3.1142 21.1436C2.94434 21.454 2.55271 21.5643 2.24588 21.3882C0.101032 20.1572 -0.634478 17.4285 0.601539 15.3004L6.36223 5.14087C6.6053 7.06315 7.80848 8.68617 9.47615 9.51432Z" fill="#2E3E5C"/>
<path d="M17.6399 5.13623L23.3988 15.2959C24.6363 17.4292 23.9019 20.1572 21.7598 21.3881C21.4527 21.5646 21.0605 21.454 20.8908 21.1431C17.0252 14.0604 15.3135 10.9275 14.5315 9.51138C16.1973 8.68162 17.3985 7.05823 17.6399 5.13623V5.13623Z" fill="#2E3E5C"/>
</svg>
