<svg width="24" height="24" viewBox="0 0 24 24" fill="none" xmlns="http://www.w3.org/2000/svg">
<path fill-rule="evenodd" clip-rule="evenodd" d="M14.611 17.28L15.379 21.12H16.8C17.0651 21.12 17.28 21.3349 17.28 21.6C17.28 21.8651 17.0651 22.08 16.8 22.08H7.20001C6.93492 22.08 6.72001 21.8651 6.72001 21.6C6.72001 21.3349 6.93492 21.12 7.20001 21.12H8.83201L9.60001 17.28H5.28001C3.58731 17.28 2.18695 16.0283 1.95404 14.4L22.046 14.4C21.8131 16.0283 20.4127 17.28 18.72 17.28H14.611Z" fill="#2E3E5C"/>
<path d="M1.91998 13.44V3.36004C1.91998 2.56475 2.56469 1.92004 3.35998 1.92004H20.64C21.4353 1.92004 22.08 2.56475 22.08 3.36004V13.44H1.91998Z" fill="#706FE5"/>
</svg>
